<mxfile host="app.diagrams.net" modified="2023-12-11T11:08:53.693Z" agent="Mozilla/5.0 (Windows NT 10.0; Win64; x64) AppleWebKit/537.36 (KHTML, like Gecko) Chrome/119.0.0.0 Safari/537.36" etag="nMiTrl4AE-NVJQRAIhfh" version="22.1.7" type="github">
  <diagram name="Page-1" id="NHY2SmDRfg_OCkW9SkJy">
    <mxGraphModel dx="2193" dy="1694" grid="0" gridSize="10" guides="1" tooltips="1" connect="1" arrows="1" fold="1" page="0" pageScale="1" pageWidth="827" pageHeight="1169" math="0" shadow="0">
      <root>
        <mxCell id="0" />
        <mxCell id="1" parent="0" />
        <mxCell id="-DGKro4F88sxjP23v14D-17" value="" style="strokeWidth=1;shadow=0;dashed=0;align=center;html=1;shape=mxgraph.mockup.containers.browserWindow;rSize=0;strokeColor=#000000;strokeColor2=#008cff;strokeColor3=#c4c4c4;mainText=,;recursiveResize=0;fillColor=#000000;" vertex="1" parent="1">
          <mxGeometry x="-872" y="-1005" width="833" height="553" as="geometry" />
        </mxCell>
        <mxCell id="-DGKro4F88sxjP23v14D-18" value="Home" style="strokeWidth=1;shadow=0;dashed=0;align=center;html=1;shape=mxgraph.mockup.containers.anchor;fontSize=17;fontColor=#666666;align=left;whiteSpace=wrap;" vertex="1" parent="-DGKro4F88sxjP23v14D-17">
          <mxGeometry x="60" y="12" width="110" height="26" as="geometry" />
        </mxCell>
        <mxCell id="-DGKro4F88sxjP23v14D-19" value="https://www.booknotes/nonfiction-library/jessica.com" style="strokeWidth=1;shadow=0;dashed=0;align=center;html=1;shape=mxgraph.mockup.containers.anchor;rSize=0;fontSize=17;fontColor=#666666;align=left;" vertex="1" parent="-DGKro4F88sxjP23v14D-17">
          <mxGeometry x="130" y="60" width="250" height="26" as="geometry" />
        </mxCell>
        <mxCell id="-DGKro4F88sxjP23v14D-23" value="Tara Westover&lt;br style=&quot;font-size: 14px&quot;&gt;&lt;br style=&quot;font-size: 14px&quot;&gt;倘若你正在因接受了大学教育后常与父母辈的价值观发生冲突而感到痛苦，你可以在本书中找到共鸣.&lt;br&gt;..." style="html=1;shadow=0;dashed=0;shape=mxgraph.bootstrap.rrect;rSize=5;strokeColor=#0071D5;html=1;whiteSpace=wrap;fillColor=#0085FC;fontColor=#ffffff;verticalAlign=bottom;align=left;spacing=20;spacingBottom=0;fontSize=14;" vertex="1" parent="-DGKro4F88sxjP23v14D-17">
          <mxGeometry x="14" y="128" width="250" height="180" as="geometry" />
        </mxCell>
        <mxCell id="-DGKro4F88sxjP23v14D-24" value="Educated" style="html=1;shadow=0;dashed=0;shape=mxgraph.bootstrap.topButton;rSize=5;perimeter=none;whiteSpace=wrap;fillColor=#0081F4;strokeColor=#0071D5;fontColor=#ffffff;resizeWidth=1;fontSize=18;align=left;spacing=20;" vertex="1" parent="-DGKro4F88sxjP23v14D-23">
          <mxGeometry width="250" height="50" relative="1" as="geometry" />
        </mxCell>
        <mxCell id="-DGKro4F88sxjP23v14D-25" value="&lt;br style=&quot;border-color: var(--border-color);&quot;&gt;&lt;br style=&quot;border-color: var(--border-color);&quot;&gt;Martin E. P. Seligman&lt;br style=&quot;border-color: var(--border-color);&quot;&gt;&lt;br style=&quot;border-color: var(--border-color);&quot;&gt;&lt;font style=&quot;border-color: var(--border-color); font-size: 12px;&quot;&gt;如果你在生活中看到这样的一类人（可能也包括你自己）：他们反应迟缓，自觉无力又无望，未来黯淡渺茫，那么他们可能正在遭受习得性无助的痛苦。&lt;/font&gt;" style="html=1;shadow=0;dashed=0;shape=mxgraph.bootstrap.rrect;rSize=5;strokeColor=#5B646A;html=1;whiteSpace=wrap;fillColor=#6C767D;fontColor=#ffffff;verticalAlign=top;align=left;spacing=20;spacingBottom=0;fontSize=14;" vertex="1" parent="-DGKro4F88sxjP23v14D-17">
          <mxGeometry x="291.5" y="130" width="250" height="180" as="geometry" />
        </mxCell>
        <mxCell id="-DGKro4F88sxjP23v14D-26" value="Helplessness: On Depression and Death" style="html=1;shadow=0;dashed=0;shape=mxgraph.bootstrap.topButton;rSize=5;perimeter=none;whiteSpace=wrap;fillColor=#697279;strokeColor=#5B646A;fontColor=#ffffff;resizeWidth=1;fontSize=18;align=left;spacing=20;" vertex="1" parent="-DGKro4F88sxjP23v14D-25">
          <mxGeometry width="250" height="50" relative="1" as="geometry" />
        </mxCell>
        <mxCell id="-DGKro4F88sxjP23v14D-27" value="Leo Tolstoy&lt;br&gt;&lt;br&gt;&quot;我遵照它的意志生活，重新相信活着的目的——主要也是唯一的目的——改善自己。&quot;&lt;br&gt;..." style="html=1;shadow=0;dashed=0;shape=mxgraph.bootstrap.rrect;rSize=5;strokeColor=#2B8D40;html=1;whiteSpace=wrap;fillColor=#33A64C;fontColor=#ffffff;verticalAlign=bottom;align=left;spacing=20;spacingBottom=0;fontSize=14;" vertex="1" parent="-DGKro4F88sxjP23v14D-17">
          <mxGeometry x="569" y="130" width="250" height="180" as="geometry" />
        </mxCell>
        <mxCell id="-DGKro4F88sxjP23v14D-28" value="忏悔录 A Confession" style="html=1;shadow=0;dashed=0;shape=mxgraph.bootstrap.topButton;rSize=5;perimeter=none;whiteSpace=wrap;fillColor=#31A14A;strokeColor=#2B8D40;fontColor=#ffffff;resizeWidth=1;fontSize=18;align=left;spacing=20;" vertex="1" parent="-DGKro4F88sxjP23v14D-27">
          <mxGeometry width="250" height="50" relative="1" as="geometry" />
        </mxCell>
        <mxCell id="-DGKro4F88sxjP23v14D-29" value="Leo Tolstoy&lt;br&gt;&lt;br&gt;“结论：人的生命在追求幸福，而他所追求的，也正是生命给予的。”&lt;br&gt;..." style="html=1;shadow=0;dashed=0;shape=mxgraph.bootstrap.rrect;rSize=5;strokeColor=#BA2239;html=1;whiteSpace=wrap;fillColor=#DB2843;fontColor=#ffffff;verticalAlign=bottom;align=left;spacing=20;spacingBottom=0;fontSize=14;" vertex="1" parent="-DGKro4F88sxjP23v14D-17">
          <mxGeometry x="14" y="344" width="250" height="180" as="geometry" />
        </mxCell>
        <mxCell id="-DGKro4F88sxjP23v14D-30" value="论生命 On Life" style="html=1;shadow=0;dashed=0;shape=mxgraph.bootstrap.topButton;rSize=5;perimeter=none;whiteSpace=wrap;fillColor=#D42741;strokeColor=#BA2239;fontColor=#ffffff;resizeWidth=1;fontSize=18;align=left;spacing=20;" vertex="1" parent="-DGKro4F88sxjP23v14D-29">
          <mxGeometry width="250" height="50" relative="1" as="geometry" />
        </mxCell>
        <mxCell id="-DGKro4F88sxjP23v14D-31" value="&lt;b&gt;&lt;font style=&quot;font-size: 20px&quot;&gt;Warning card title&lt;/font&gt;&lt;/b&gt;&lt;br style=&quot;font-size: 14px&quot;&gt;&lt;br style=&quot;font-size: 14px&quot;&gt;Some quick example text to build on the card title and make up the bulk of the card&#39;s content." style="html=1;shadow=0;dashed=0;shape=mxgraph.bootstrap.rrect;rSize=5;strokeColor=#D89F20;html=1;whiteSpace=wrap;fillColor=#FFBC26;fontColor=#ffffff;verticalAlign=bottom;align=left;spacing=20;spacingBottom=0;fontSize=14;" vertex="1" parent="-DGKro4F88sxjP23v14D-17">
          <mxGeometry x="291.5" y="344" width="250" height="180" as="geometry" />
        </mxCell>
        <mxCell id="-DGKro4F88sxjP23v14D-32" value="Header" style="html=1;shadow=0;dashed=0;shape=mxgraph.bootstrap.topButton;rSize=5;perimeter=none;whiteSpace=wrap;fillColor=#F7B625;strokeColor=#D89F20;fontColor=#ffffff;resizeWidth=1;fontSize=18;align=left;spacing=20;" vertex="1" parent="-DGKro4F88sxjP23v14D-31">
          <mxGeometry width="250" height="50" relative="1" as="geometry" />
        </mxCell>
        <mxCell id="-DGKro4F88sxjP23v14D-33" value="Benjamin Franklin&lt;br&gt;&lt;br style=&quot;border-color: var(--border-color);&quot;&gt;倘若你想摆脱贫穷、懒惰、傲慢、消极心态而不知道该怎么做，弗兰克林或许可以给你一些建议。&lt;br&gt;..." style="html=1;shadow=0;dashed=0;shape=mxgraph.bootstrap.rrect;rSize=5;strokeColor=#188C9C;html=1;whiteSpace=wrap;fillColor=#1CA5B8;fontColor=#ffffff;verticalAlign=bottom;align=left;spacing=20;spacingBottom=0;fontSize=14;" vertex="1" parent="-DGKro4F88sxjP23v14D-17">
          <mxGeometry x="569" y="344" width="250" height="180" as="geometry" />
        </mxCell>
        <mxCell id="-DGKro4F88sxjP23v14D-34" value="The Autobiography of Benjamin Franklin" style="html=1;shadow=0;dashed=0;shape=mxgraph.bootstrap.topButton;rSize=5;perimeter=none;whiteSpace=wrap;fillColor=#1BA0B2;strokeColor=#188C9C;fontColor=#ffffff;resizeWidth=1;fontSize=18;align=left;spacing=20;" vertex="1" parent="-DGKro4F88sxjP23v14D-33">
          <mxGeometry width="250" height="50" relative="1" as="geometry" />
        </mxCell>
      </root>
    </mxGraphModel>
  </diagram>
</mxfile>
